<svg xmlns="http://www.w3.org/2000/svg" viewBox="0 0 1024 1024" version="1.1" fill="#1890ff">
  <path d="M477.184 528.896c6.144 2.048 10.752 7.168 12.288 13.824l19.456 93.696 117.248-226.304-238.08 89.088 89.088 29.696z"></path>
  <path d="M512 76.8c-240.128 0-435.2 195.072-435.2 435.2s195.072 435.2 435.2 435.2 435.2-195.072 435.2-435.2-195.072-435.2-435.2-435.2zM405.504 360.96c66.56-59.392 164.352-60.928 232.448-8.704L348.16 460.288c8.192-38.4 28.16-73.216 57.344-99.328z m-56.32 180.736l93.184 31.232 19.968 96.256c-56.32-20.992-98.816-69.12-113.152-127.488z m165.376 162.816c-7.68 6.656-18.944 6.144-25.6-1.536-2.048-2.56-3.584-5.12-4.096-8.192l-28.16-134.144-130.048-43.52c-5.12-1.536-9.216-5.632-11.264-10.752-3.584-9.728 1.536-19.968 10.752-23.552l331.264-122.88c4.608-1.536 10.24-1.536 14.336 1.024 9.216 4.608 12.8 15.36 8.192 24.576l-161.28 314.368c-1.024 1.024-2.048 3.072-4.096 4.608z m194.048-188.416c-9.216 88.576-79.872 156.16-165.376 163.84l140.8-274.944c19.968 33.28 28.672 72.192 24.576 111.104z"></path>
</svg>
